<?xml version="1.0" encoding="UTF-8"?>
<svg id="Vrstva_1" data-name="Vrstva 1" xmlns="http://www.w3.org/2000/svg" viewBox="0 0 559.66 187.85">
  <defs>
    <style>
      .cls-1 {
        fill: #1e7044;
      }

      .cls-2 {
        fill: #f2f2f2;
      }

      .cls-3 {
        fill: none;
      }
    </style>
  </defs>
  <polygon class="cls-2" points="2.29 0 2.29 162.9 67.75 162.9 67.75 108.43 110.22 162.9 181.68 162.9 110.22 81.45 181.68 0 112.72 0 67.75 55.47 67.75 0 2.29 0"/>
  <polygon class="cls-2" points="205.67 0 290.61 0 219.16 81.45 292.61 162.9 205.67 162.9 133.97 81.45 205.67 0"/>
  <polygon class="cls-1" points="0 177.16 0 187.85 548.34 187.85 559.66 177.16 0 177.16"/>
  <polygon class="cls-2" points="297.7 29.42 297.7 75.08 316.05 75.08 316.05 59.81 327.96 75.08 347.99 75.08 327.96 52.25 347.99 29.42 328.66 29.42 316.05 44.97 316.05 29.42 297.7 29.42"/>
  <polygon class="cls-2" points="297.7 98.9 297.7 144.57 316.05 144.57 316.05 129.3 327.96 144.57 347.99 144.57 327.96 121.74 347.99 98.9 328.66 98.9 316.05 114.45 316.05 98.9 297.7 98.9"/>
  <polygon class="cls-2" points="399.4 98.53 399.4 144.2 417.75 144.2 417.75 128.93 429.66 144.2 449.69 144.2 429.66 121.36 449.69 98.53 430.36 98.53 417.75 114.08 417.75 98.53 399.4 98.53"/>
  <path class="cls-3" d="M382.12,51.78c0,8.03-5.65,14.54-12.63,14.54s-12.62-6.51-12.62-14.54,5.65-14.54,12.62-14.54,12.63,6.51,12.63,14.54Z"/>
  <path class="cls-2" d="M369.5,27.53c-13.66,0-24.74,10.9-24.74,24.34s11.08,24.34,24.74,24.34,24.75-10.9,24.75-24.34-11.08-24.34-24.75-24.34ZM369.5,66.31c-6.96,0-12.62-6.51-12.62-14.54s5.65-14.54,12.62-14.54,12.63,6.51,12.63,14.54-5.65,14.54-12.63,14.54Z"/>
  <polygon class="cls-2" points="393.44 28.54 407.78 28.54 417.87 61.67 428.58 29.42 442.11 29.42 426.36 73.78 409.59 73.78 393.44 28.54"/>
  <path class="cls-3" d="M479.47,51.78c0,8.03-5.65,14.54-12.62,14.54s-12.63-6.51-12.63-14.54,5.65-14.54,12.63-14.54,12.62,6.51,12.62,14.54Z"/>
  <path class="cls-2" d="M466.86,27.53c-13.67,0-24.75,10.9-24.75,24.34s11.08,24.34,24.75,24.34,24.74-10.9,24.74-24.34-11.08-24.34-24.74-24.34ZM466.86,66.31c-6.97,0-12.63-6.51-12.63-14.54s5.65-14.54,12.63-14.54,12.62,6.51,12.62,14.54-5.65,14.54-12.62,14.54Z"/>
  <path class="cls-2" d="M350.78,98.9h12.42v29.62c.11.7.55,2.83,2.42,4.54,2.6,2.38,5.87,2.03,6.36,1.97.54.04,4.72.26,7.42-2.88,1.25-1.46,1.67-3.04,1.83-3.93v-29.32h12.41v32.5c-.23,1.32-1.14,5.61-5,9.09-4.2,3.79-9.04,4.05-10.3,4.08h-15c-1.58-.3-4.17-1.04-6.67-3.02-5.37-4.26-5.84-10.77-5.91-11.97v-30.68Z"/>
  <polygon class="cls-2" points="489.38 98.9 504.22 98.9 484.99 128.53 484.99 143.83 472.41 143.83 472.41 128.53 453.18 98.9 468.02 98.9 478.7 117.62 489.38 98.9"/>
</svg>